<svg width="92" height="33" viewBox="0 0 92 33" fill="none" xmlns="http://www.w3.org/2000/svg">
<path d="M40.563 0.471924H47.123V31.8719H40.563V0.471924Z" fill="black"/>
<path d="M63.4481 26.147C62.8199 26.6492 62.034 26.9125 61.23 26.89C60.9128 26.8679 60.6032 26.7822 60.3196 26.6383C60.0361 26.4944 59.7841 26.2951 59.5789 26.0521C59.3738 25.8091 59.2196 25.5273 59.1253 25.2236C59.031 24.9199 58.9987 24.6004 59.0301 24.2839V13.9509H64.0621V8.651H59.0301V0.473999H52.7401V25.319C52.6889 26.2531 52.8329 27.1877 53.1629 28.0631C53.4929 28.9385 54.0015 29.7357 54.6566 30.4037C55.3116 31.0716 56.0988 31.5958 56.9676 31.9427C57.8364 32.2897 58.768 32.452 59.7029 32.4191C61.0078 32.3948 62.2897 32.0705 63.449 31.4711L63.4481 26.147Z" fill="black"/>
<path d="M79.717 13.666C81.4675 13.666 83.146 14.3614 84.3838 15.5991C85.6215 16.8369 86.3169 18.5156 86.3169 20.266C86.3169 22.0164 85.6215 23.6952 84.3838 24.933C83.146 26.1707 81.4675 26.8661 79.717 26.8661C77.9666 26.8661 76.2878 26.1707 75.05 24.933C73.8123 23.6952 73.1169 22.0164 73.1169 20.266C73.1169 18.5156 73.8123 16.8369 75.05 15.5991C76.2878 14.3614 77.9666 13.666 79.717 13.666ZM79.717 8.10999C78.121 8.10985 76.5404 8.42409 75.0659 9.03479C73.5914 9.64549 72.2518 10.5407 71.1233 11.6692C69.9948 12.7977 69.0995 14.1375 68.4888 15.6121C67.8781 17.0866 67.5638 18.6671 67.564 20.2631C67.564 23.4862 68.8444 26.5774 71.1235 28.8566C73.4027 31.1357 76.4939 32.4159 79.717 32.4159C82.94 32.4156 86.0309 31.1352 88.3098 28.8561C90.5887 26.577 91.8689 23.4861 91.8689 20.2631C91.869 18.6672 91.5547 17.0868 90.9441 15.6123C90.3335 14.1378 89.4385 12.7981 88.3101 11.6696C87.1816 10.541 85.8418 9.64579 84.3674 9.03503C82.893 8.42428 81.3129 8.10999 79.717 8.10999Z" fill="black"/>
<path d="M40.563 0.471924H47.123V31.8719H40.563V0.471924Z" fill="black"/>
<path d="M7.86621 31.8759L17.9941 9.25593C18.0722 9.08257 18.1987 8.93543 18.3584 8.83222C18.5181 8.72901 18.7039 8.67414 18.894 8.67414C19.0842 8.67414 19.27 8.72901 19.4297 8.83222C19.5893 8.93543 19.7159 9.08257 19.7939 9.25593L29.9229 31.8759H36.7891L24.3662 4.12995C23.8988 3.05975 23.132 2.14743 22.1582 1.50287C21.1844 0.858322 20.0447 0.508961 18.877 0.496893C17.7326 0.491451 16.6118 0.820858 15.6523 1.44452C14.6929 2.06819 13.9367 2.95889 13.4771 4.0069L0.998047 31.8759H7.86621Z" fill="black"/>
</svg>
